<svg width="17" height="17" viewBox="0 0 17 17" fill="none" xmlns="http://www.w3.org/2000/svg">
<path d="M16.9143 8.25586C16.9143 6.67361 16.4451 5.12689 15.566 3.8113C14.687 2.49571 13.4376 1.47033 11.9757 0.864826C10.5139 0.259326 8.9054 0.100899 7.35356 0.409581C5.80171 0.718262 4.37624 1.48019 3.25742 2.59901C2.1386 3.71783 1.37668 5.14329 1.068 6.69514C0.759316 8.24699 0.917742 9.85552 1.52324 11.3173C2.12874 12.7791 3.15412 14.0286 4.46972 14.9076C5.78531 15.7867 7.33203 16.2559 8.91428 16.2559C11.0354 16.2538 13.069 15.4103 14.5688 13.9104C16.0687 12.4106 16.9122 10.377 16.9143 8.25586ZM9.38487 15.299V9.98135H11.4241C11.5489 9.98135 11.6686 9.93177 11.7568 9.84352C11.8451 9.75527 11.8947 9.63557 11.8947 9.51076C11.8947 9.38595 11.8451 9.26626 11.7568 9.17801C11.6686 9.08975 11.5489 9.04017 11.4241 9.04017H9.38487V7.00096C9.38693 6.62717 9.53633 6.26928 9.80064 6.00497C10.0649 5.74065 10.4228 5.59125 10.7966 5.58919H12.0515C12.1763 5.58919 12.296 5.53962 12.3843 5.45136C12.4725 5.36311 12.5221 5.24341 12.5221 5.11861C12.5221 4.9938 12.4725 4.8741 12.3843 4.78585C12.296 4.6976 12.1763 4.64802 12.0515 4.64802H10.7966C10.1732 4.65009 9.57595 4.89865 9.13513 5.33946C8.69432 5.78028 8.44576 6.37756 8.44369 7.00096V9.04017H6.40447C6.27967 9.04017 6.15997 9.08975 6.07172 9.17801C5.98347 9.26626 5.93389 9.38595 5.93389 9.51076C5.93389 9.63557 5.98347 9.75527 6.07172 9.84352C6.15997 9.93177 6.27967 9.98135 6.40447 9.98135H8.44369V15.299C6.61641 15.1769 4.90811 14.3494 3.67954 12.9913C2.45096 11.6332 1.7983 9.85079 1.85938 8.02045C1.92046 6.19012 2.6905 4.45517 4.00688 3.18199C5.32326 1.9088 7.08293 1.19706 8.91428 1.19706C10.7456 1.19706 12.5053 1.9088 13.8217 3.18199C15.1381 4.45517 15.9081 6.19012 15.9692 8.02045C16.0303 9.85079 15.3776 11.6332 14.149 12.9913C12.9204 14.3494 11.2121 15.1769 9.38487 15.299Z" fill="#F5FAFA"/>
</svg>
