<svg width="20" height="17" viewBox="0 0 20 17" fill="none" xmlns="http://www.w3.org/2000/svg">
<path fill-rule="evenodd" clip-rule="evenodd" d="M17.0006 4.35545C16.7351 4.62014 16.4487 4.86393 16.144 5.08444C16.1545 5.23518 16.1545 5.38591 16.1545 5.53803C16.1545 9.99466 12.8929 15.1081 6.90738 15.4969C6.74847 15.5072 6.58764 15.5142 6.4249 15.5177C6.34111 15.5196 6.25681 15.5205 6.17201 15.5205V15.5179C6.16243 15.5179 6.15285 15.5177 6.14328 15.5177C4.79211 15.5158 3.46141 15.2382 2.23037 14.7082C2.02703 14.6206 1.8264 14.5262 1.62886 14.425C1.62863 14.4249 1.6284 14.4247 1.62817 14.4246C1.34343 14.2787 1.06507 14.1187 0.79418 13.9449C1.07137 13.9783 1.34996 13.9949 1.62923 13.9956C1.87221 13.9958 2.11412 13.9834 2.35407 13.9588C3.30436 13.8613 4.22383 13.5715 5.05673 13.1087C5.38086 12.9285 5.69189 12.7222 5.98652 12.4909C5.62928 12.4841 5.2825 12.4235 4.95524 12.3158C4.17811 12.0601 3.51103 11.5391 3.07519 10.8428C2.94202 10.63 2.83043 10.4009 2.74389 10.1579C2.7317 10.1237 2.72001 10.0892 2.70882 10.0545C2.97633 10.1061 3.24797 10.126 3.51826 10.1146C3.77935 10.1036 4.03917 10.0633 4.29279 9.99402C3.75232 9.88483 3.26191 9.65488 2.84745 9.33571C2.84547 9.33418 2.84349 9.33266 2.84151 9.33113C2.21434 8.84602 1.76194 8.15622 1.5744 7.37151C1.51158 7.10866 1.47848 6.83517 1.47848 6.55516V6.5107C1.50576 6.5259 1.53323 6.54072 1.56088 6.55516C1.58496 6.56774 1.60917 6.58003 1.63351 6.59202C1.82418 6.68602 2.02267 6.76218 2.2264 6.8198C2.50042 6.89728 2.78395 6.9412 3.07078 6.94976C2.68385 6.69117 2.3641 6.36829 2.11691 6.00433C1.52817 5.13748 1.35097 4.0376 1.6579 3.01828C1.73554 2.76043 1.84416 2.50773 1.98493 2.26527C2.15112 2.46977 2.32469 2.66679 2.50509 2.85606C4.08259 4.51106 6.18316 5.57345 8.45181 5.86291C8.70447 5.89515 8.95923 5.9178 9.21557 5.93061C9.15845 5.68445 9.12863 5.4359 9.12493 5.18891C9.11032 4.21331 9.50322 3.26213 10.2306 2.57858C11.6437 1.25028 13.866 1.31837 15.1943 2.73073C15.59 2.65271 15.9774 2.54087 16.3526 2.39689C16.7224 2.25495 17.0802 2.08179 17.4223 1.879C17.3103 2.22648 17.1458 2.55157 16.9369 2.84415C16.8982 2.89836 16.858 2.95145 16.8163 3.00336C16.5571 3.32614 16.2409 3.6033 15.88 3.81936C16.1293 3.78997 16.3766 3.74718 16.6207 3.69128C16.8794 3.63206 17.1345 3.55813 17.3849 3.46983C17.5572 3.40901 17.7273 3.34139 17.8947 3.26705C17.6328 3.65955 17.3331 4.0239 17.0006 4.35545ZM18.0102 2.41112C18.0513 2.31076 18.0887 2.20855 18.1222 2.1047L18.7184 0.255859L17.0473 1.24642C16.5374 1.54869 15.9887 1.77736 15.4169 1.92595C13.7916 0.51495 11.3291 0.536809 9.72694 2.04272C8.86891 2.84911 8.39576 3.96326 8.38922 5.11224C6.10844 4.78163 4.02214 3.60604 2.55562 1.80149L1.88382 0.974838L1.34898 1.89604C0.708471 2.99923 0.618386 4.2776 1.00309 5.40418L0.743105 5.25938V6.55444C0.743105 7.53854 1.08107 8.45669 1.65654 9.18513L2.00881 10.2797C2.36127 11.375 3.12982 12.2515 4.1076 12.7554C3.32949 13.0869 2.48753 13.2608 1.63077 13.2602C1.37961 13.2596 1.12987 13.2446 0.882057 13.2148L0.397095 14.5638C1.91337 15.5366 3.64741 16.1075 5.43663 16.2287V16.2559H6.17201C13.1159 16.2559 16.8898 10.4902 16.8898 5.53809V5.52809C16.8898 5.49977 16.8899 5.47044 16.8898 5.44027C17.5143 4.9388 18.06 4.34419 18.5064 3.67525L19.9143 1.56553L18.0102 2.41112Z" fill="#F5FAFA"/>
</svg>
