<svg width="17" height="17" viewBox="0 0 17 17" fill="none" xmlns="http://www.w3.org/2000/svg">
<path d="M14.2792 16.5938H2.75498C2.16145 16.5938 1.59224 16.358 1.17255 15.9383C0.752867 15.5186 0.51709 14.9494 0.51709 14.3559V2.83164C0.51709 2.23811 0.752867 1.6689 1.17255 1.24921C1.59224 0.829527 2.16145 0.59375 2.75498 0.59375H14.2792C14.8727 0.59375 15.4419 0.829527 15.8616 1.24921C16.2813 1.6689 16.5171 2.23811 16.5171 2.83164V14.3559C16.5171 14.9494 16.2813 15.5186 15.8616 15.9383C15.4419 16.358 14.8727 16.5938 14.2792 16.5938ZM2.75498 1.48891C2.39886 1.48891 2.05733 1.63037 1.80552 1.88218C1.55371 2.13399 1.41225 2.47552 1.41225 2.83164V14.3559C1.41225 14.712 1.55371 15.0535 1.80552 15.3053C2.05733 15.5571 2.39886 15.6986 2.75498 15.6986H14.2792C14.6353 15.6986 14.9768 15.5571 15.2287 15.3053C15.4805 15.0535 15.6219 14.712 15.6219 14.3559V2.83164C15.6219 2.47552 15.4805 2.13399 15.2287 1.88218C14.9768 1.63037 14.6353 1.48891 14.2792 1.48891H2.75498Z" fill="#F5FAFA"/>
<path d="M8.51721 12.705C7.70384 12.7041 6.90899 12.4621 6.23315 12.0095C5.5573 11.557 5.03079 10.9142 4.72018 10.1625C4.40957 9.41079 4.32881 8.58385 4.4881 7.78623C4.64738 6.98861 5.03957 6.25612 5.61509 5.68136C6.1906 5.1066 6.9236 4.71536 7.72143 4.55712C8.51925 4.39887 9.34609 4.48071 10.0974 4.7923C10.8487 5.10389 11.4908 5.63124 11.9425 6.30768C12.3941 6.98412 12.6351 7.77928 12.6349 8.59265C12.6335 9.6838 12.199 10.7298 11.427 11.5008C10.6549 12.2719 9.60837 12.705 8.51721 12.705ZM8.51721 5.37009C7.88112 5.37097 7.25955 5.56035 6.73103 5.9143C6.2025 6.26825 5.79073 6.77089 5.54771 7.35873C5.3047 7.94658 5.24135 8.59325 5.36566 9.21708C5.48997 9.84091 5.79637 10.4139 6.24616 10.8637C6.69595 11.3135 7.26894 11.6199 7.89277 11.7442C8.5166 11.8685 9.16328 11.8052 9.75113 11.5621C10.339 11.3191 10.8416 10.9074 11.1956 10.3788C11.5495 9.85031 11.7389 9.22874 11.7398 8.59265C11.7398 7.73797 11.4002 6.9183 10.7959 6.31395C10.1916 5.70961 9.37189 5.37009 8.51721 5.37009Z" fill="#F5FAFA"/>
<path d="M13.172 4.92849C13.7035 4.92849 14.1343 4.49766 14.1343 3.9662C14.1343 3.43474 13.7035 3.00391 13.172 3.00391C12.6406 3.00391 12.2097 3.43474 12.2097 3.9662C12.2097 4.49766 12.6406 4.92849 13.172 4.92849Z" fill="#F5FAFA"/>
</svg>
